<?xml version="1.0" encoding="utf-8"?>
<!-- Generator: Adobe Illustrator 16.0.0, SVG Export Plug-In . SVG Version: 6.00 Build 0)  -->
<!DOCTYPE svg PUBLIC "-//W3C//DTD SVG 1.1//EN" "http://www.w3.org/Graphics/SVG/1.1/DTD/svg11.dtd">
<svg version="1.1" id="Layer_1" xmlns="http://www.w3.org/2000/svg" xmlns:xlink="http://www.w3.org/1999/xlink" x="0px" y="0px"
	 width="1624px" height="3971.865px" viewBox="-53.157 2690.303 1624 3971.865"
	 enable-background="new -53.157 2690.303 1624 3971.865" xml:space="preserve">
<image display="none" overflow="visible" width="1621" height="4302" xlink:href="gowanus_canal_small.png"  transform="matrix(1.0012 0 0 1.0048 -53.1562 2339.5835)">
</image>
<image display="none" overflow="visible" width="2724" height="6662" xlink:href="gowanus_canal.png"  transform="matrix(1 0 0 1 -53.1582 0.0835)">
</image>
<rect x="-53.157" y="2690.32" opacity="0.5" fill="#FFFFFF" stroke="#8CD1E3" stroke-miterlimit="10" width="1624" height="3971.764"/>
<polygon opacity="0.4" fill="#2E3192" stroke="#8CD1E3" stroke-linejoin="round" stroke-miterlimit="10" enable-background="new    " points="
	1123.361,4407.782 1119.957,4407.152 1119.576,4403.996 973.628,4391.798 910.539,4329.969 690.985,4380.441 673.786,4387.554 
	660.28,4392.5 644.718,4400.491 624.81,4412.828 615.276,4420.4 614.435,4424.604 616.539,4427.97 786.25,4442.901 784.87,4455.566 
	837.354,4460.777 835.46,4482.857 591.933,4458.674 576.791,4476.127 564.594,4509.355 557.443,4546.79 582.68,4551.836 
	713.066,4564.455 709.912,4599.785 681.731,4596.841 675.001,4589.27 643.035,4587.167 640.933,4590.952 577.843,4583.381 
	574.147,4580.432 555.762,4580.438 545.246,4682.222 543.564,4682.222 526.95,4868.338 533.259,4872.964 581.7,4876.997 
	580.734,4896.773 531.997,4892.735 526.276,4897.442 521.062,4968.443 519.8,4972.227 525.268,4984.424 518.538,5019.333 
	512.65,5038.05 513.878,5051.091 515.594,5102.473 569.57,5281.368 600.737,5285.721 592.756,5357.758 620.515,5441.034 
	601.588,5565.945 569.414,5560.268 546.297,5574.724 509.723,5642.437 535.347,5654.899 493.079,5709.154 460.641,5719.423 
	426.837,5775.396 802.025,5861.194 774.446,6054.873 760.349,6047.731 752.997,6076.952 342.931,6002.508 332.691,6062.798 
	449.211,6090.245 438.824,6138.777 577.306,6164.57 568.549,6194.556 343.9,6151.356 316.74,6136.085 171.902,6108.429 
	170.908,6119.659 168.523,6119.56 168.027,6135.955 175.777,6137.742 178.46,6142.512 176.351,6149.064 137.711,6142.236 
	134.871,6152.172 331.679,6193.484 330.862,6197.315 362.983,6204.418 357.441,6244.132 494.976,6270.601 502.465,6233.147 
	522.099,6237.192 520.837,6241.608 569.854,6251.748 572.358,6248.547 604.111,6254.224 600.327,6285.769 359.334,6251.072 
	347.348,6298.453 426.472,6310.932 410.077,6385.752 128.977,6339.251 73.83,6385.752 47.221,6432.31 42.828,6476.969 
	51.53,6501.103 374.306,6584.877 359.401,6662.083 10.634,6662.083 -53.157,6646.88 -53.157,5747.243 -13.596,5725.269 
	11.827,5898.672 26.135,5895.692 -0.692,5718.625 22.559,5708.492 -4.866,5408.612 50.579,5400.86 128.765,5970.499 
	140.986,5969.008 109.688,5740.982 383.938,5697.866 373.214,5532.51 445.81,5522.914 435.039,5449.234 517.683,5434.093 
	487.401,5249.248 484.131,5240.62 487.133,5234.261 480.39,5174.233 485.311,5173.904 471.435,5075.453 485.731,5076.116 
	488.675,5019.333 476.478,5004.191 484.75,4957.977 483.604,4954.558 486.151,4950.145 514.752,4679.069 506.341,4670.867 
	511.331,4665.313 528.422,4544.056 531.997,4510.618 550.503,4460.146 565.646,4436.381 573.427,4426.708 590.04,4407.57 
	607.829,4391.805 613.111,4391.973 628.792,4382.263 644.718,4373.712 669.113,4361.515 690.985,4351.419 828.126,4310.067 
	830.423,4312.03 897.254,4295.187 915.585,4085.6 870.581,3976.245 872.684,3519.471 902.546,3519.471 902.125,3972.459 
	950.915,4078.871 927.782,4310.201 970.263,4356.888 1132.615,4371.189 1130.091,4395.583 1125.044,4395.164 "/>
<g>
	<circle id="gcss-01" fill="#FFFFFF" stroke="#000000" stroke-miterlimit="10" cx="887.405" cy="3544.708" r="10.516"/>
	<circle id="gcss-02" fill="#FFFFFF" stroke="#000000" stroke-miterlimit="10" cx="887.405" cy="3735.24" r="10.515"/>
	<circle id="gcss-03" fill="#FFFFFF" stroke="#000000" stroke-miterlimit="10" cx="887.405" cy="3818.519" r="10.515"/>
	<circle id="gcss-04" fill="#FFFFFF" stroke="#000000" stroke-miterlimit="10" cx="889.929" cy="3986.76" r="10.515"/>
	<circle id="gcss-05" fill="#FFFFFF" stroke="#000000" stroke-miterlimit="10" cx="927.782" cy="4146.587" r="10.515"/>
	<circle id="gcss-06" fill="#FFFFFF" stroke="#000000" stroke-miterlimit="10" cx="918.108" cy="4240.802" r="10.515"/>
	<circle id="gcss-07" fill="#FFFFFF" stroke="#000000" stroke-miterlimit="10" cx="909.696" cy="4312.304" r="10.515"/>
	<circle id="gcss-08" fill="#FFFFFF" stroke="#000000" stroke-miterlimit="10" cx="1086.349" cy="4388.013" r="10.515"/>
	<circle id="gcss-09" fill="#FFFFFF" stroke="#000000" stroke-miterlimit="10" cx="741.456" cy="4356.888" r="10.516"/>
	<circle id="gcss-10" fill="#FFFFFF" stroke="#000000" stroke-miterlimit="10" cx="636.306" cy="4450.261" r="10.516"/>
	<circle id="gcss-11" fill="#FFFFFF" stroke="#000000" stroke-miterlimit="10" cx="590.04" cy="4572.235" r="10.515"/>
	<circle id="gcss-12" fill="#FFFFFF" stroke="#000000" stroke-miterlimit="10" cx="525.268" cy="4719.446" r="10.516"/>
	<circle id="gcss-13" fill="#FFFFFF" stroke="#000000" stroke-miterlimit="10" cx="546.297" cy="4883.901" r="10.515"/>
	<circle id="gcss-14" fill="#FFFFFF" stroke="#000000" stroke-miterlimit="10" cx="512.65" cy="5195.565" r="10.516"/>
</g>
<g>
	
		<rect x="154.878" y="3422.37" opacity="0.8" fill="#FFFFFF" stroke="#000000" stroke-miterlimit="10" enable-background="new    " width="189.557" height="302.355"/>
	<polygon fill="#2E3192" stroke="#8CD1E3" stroke-linejoin="round" stroke-miterlimit="10" points="288.913,3519.816 
		288.579,3519.752 288.542,3519.443 274.229,3518.247 268.042,3512.184 246.512,3517.133 244.825,3517.832 243.501,3518.317 
		241.975,3519.1 240.023,3520.309 239.087,3521.051 239.005,3521.465 239.212,3521.794 255.854,3523.258 255.719,3524.501 
		260.865,3525.013 260.681,3527.178 236.798,3524.806 235.314,3526.517 234.118,3529.776 233.417,3533.447 235.892,3533.942 
		248.677,3535.179 248.368,3538.643 245.604,3538.355 244.945,3537.613 241.811,3537.406 241.604,3537.777 235.417,3537.036 
		235.055,3536.746 233.251,3536.746 232.221,3546.728 232.055,3546.728 230.426,3564.98 231.045,3565.433 235.796,3565.828 
		235.7,3567.767 230.921,3567.372 230.359,3567.833 229.849,3574.795 229.725,3575.167 230.261,3576.363 229.601,3579.787 
		229.024,3581.622 229.145,3582.901 229.312,3587.939 234.605,3605.483 237.662,3605.909 236.879,3612.973 239.602,3621.14 
		237.745,3633.39 234.59,3632.833 232.324,3634.25 228.737,3640.891 231.25,3642.114 227.104,3647.434 223.923,3648.439 
		220.608,3653.929 257.401,3662.342 254.696,3681.335 253.314,3680.635 252.594,3683.5 212.38,3676.201 211.376,3682.114 
		222.803,3684.804 221.784,3689.565 235.457,3692.411 234.404,3695.379 212.504,3690.802 211.329,3695.379 214.347,3696.002 
		213.804,3699.895 227.29,3702.492 228.025,3698.818 229.951,3699.214 229.827,3699.648 234.633,3700.642 234.879,3700.33 
		237.993,3700.885 237.622,3703.978 213.989,3700.577 212.813,3705.222 205.5,3705.222 205.596,3648.176 216.401,3646.443 
		215.35,3630.111 222.469,3629.169 221.413,3621.945 229.517,3620.459 226.547,3602.333 226.227,3601.487 226.522,3600.864 
		225.86,3594.977 226.343,3594.945 224.982,3585.291 226.384,3585.355 226.672,3579.787 225.477,3578.301 226.288,3573.77 
		226.176,3573.433 226.425,3573.001 229.229,3546.418 228.405,3545.615 228.895,3545.07 230.57,3533.178 230.921,3529.899 
		232.736,3524.951 234.221,3522.62 234.984,3521.671 236.613,3519.795 238.357,3518.248 238.875,3518.264 240.413,3517.312 
		241.975,3516.475 244.367,3515.278 246.512,3514.289 259.961,3510.233 260.186,3510.425 266.74,3508.774 268.537,3488.221 
		264.125,3477.496 264.331,3432.703 267.259,3432.703 267.217,3477.125 272.002,3487.561 269.733,3510.247 273.9,3514.825 
		289.82,3516.227 289.573,3518.619 289.078,3518.578 	"/>
</g>
</svg>
